#format: frame checksums
#version: 2
#hash: MD5
#tb 0: 1001/30000
#media_type 0: video
#codec_id 0: rawvideo
#dimensions 0: 208x226
#sar 0: 1/1
#stream#, dts,        pts, duration,     size, hash
0,          0,          0,        1,    70512, 33aa4af6153570518c59960a0c959053
0,          1,          1,        1,    70512, 024fa27dee80ad199528052aaa8d42c7
0,          2,          2,        1,    70512, b949ef118c7e7e62a8b88e2308219ef9
0,          3,          3,        1,    70512, 3061ee13696ced5e10a646fdd5ca6c34
0,          4,          4,        1,    70512, c4984bd53dcb7b9e2570f2965d077b2f
0,          5,          5,        1,    70512, d564c35c5caadcfd9f80377fa414af72
0,          6,          6,        1,    70512, 9b7d7b10ee2f3eb7a9ffddcebff45b97
0,          7,          7,        1,    70512, a0ede7085b04cbb3519d56b2e4347d14
0,          8,          8,        1,    70512, 63d7af745f9e6a34b618db28fe878ffd
0,          9,          9,        1,    70512, 85077809087e7bdfb9215bfcd1f1bbc0
